<?xml version="1.0" encoding="UTF-8" standalone="no"?>
<!-- Generator: Adobe Illustrator 18.1.1, SVG Export Plug-In . SVG Version: 6.00 Build 0)  -->
<svg id="Layer_1" xmlns="http://www.w3.org/2000/svg" xml:space="preserve" viewBox="0 0 50 50" version="1.1" y="0px" x="0px" xmlns:xlink="http://www.w3.org/1999/xlink" enable-background="new 0 0 50 50">
			<path d="m41.94 21.43c0.57-0.89 0.74-2.02 0.37-3.09l1.08-0.38c1.85-0.64 2.82-2.66 2.18-4.51l1.08-0.38c1.76-0.61 2.73-2.48 2.25-4.25-0.04-0.14-0.19-0.22-0.33-0.17l-8.57 2.99c-5.54 1.93-8.46 7.99-6.53 13.53l6.66-2.33c0.77-0.26 1.39-0.78 1.81-1.41" fill="#B2D8F7"/>
			<path d="m41.63 21.45l-0.17 0.2c-0.17 0.19-0.36 0.35-0.56 0.5-0.41 0.3-0.86 0.43-1.35 0.59-0.94 0.31-1.74 0.57-2.19 0.72-0.81 0.27-1.6 0.53-2.38 0.79-0.39 0.13-0.77 0.26-1.15 0.38-0.04 0-0.09 0.04-0.1 0.01l-0.06-0.23c-0.43-1.52-0.49-3.11-0.18-4.66 0.3-1.48 0.84-3 1.85-4.3 0.76-0.99 1.77-1.75 2.83-2.39 1.04-0.65 2.21-1.13 3.45-1.56 1.23-0.43 2.45-0.87 3.67-1.3 0.63-0.2 1.23-0.4 1.82-0.6l0.9-0.3 0.44-0.15c0.02 0 0.04-0.02 0.06-0.01 0.02 0 0.02 0.04 0.03 0.06 0.01 0.05 0.04 0.26 0.04 0.39 0.02 0.3-0.01 0.61-0.08 0.92-0.14 0.62-0.51 1.23-1.01 1.65-0.25 0.21-0.54 0.38-0.84 0.5-0.14 0.06-0.33 0.12-0.49 0.18-0.23 0.08-0.45 0.16-0.67 0.24l-0.21 0.08c-0.07 0.03-0.18 0.03-0.12 0.12l0.12 0.43c0.02 0.07 0.04 0.14 0.06 0.22l0.02 0.11c0.01 0.07 0.03 0.15 0.03 0.22 0.04 0.3 0.02 0.59-0.02 0.87-0.06 0.37-0.24 0.99-0.73 1.56-0.24 0.28-0.56 0.54-0.93 0.74-0.19 0.11-0.37 0.17-0.61 0.26-0.28 0.1-0.56 0.2-0.84 0.3-0.12 0.05-0.29 0.08-0.36 0.15l0.18 0.57c0.06 0.2 0.06 0.24 0.08 0.36 0.03 0.21 0.05 0.43 0.04 0.63-0.02 0.42-0.11 0.81-0.25 1.13-0.07 0.2-0.14 0.33-0.2 0.45l0.45 0.29c0.06-0.09 0.15-0.22 0.28-0.5s0.26-0.67 0.32-1.15c0.03-0.24 0.03-0.51 0.01-0.79-0.01-0.14-0.04-0.29-0.07-0.43-0.01-0.07-0.03-0.11-0.05-0.17 0.05-0.03 0.09-0.04 0.23-0.09 0.2-0.07 0.42-0.15 0.64-0.23 1.3-0.46 2.19-1.66 2.41-2.69 0.27-1.01-0.03-1.96 0-1.83-0.03-0.04 0-0.06 0.04-0.06l0.1-0.03 0.5-0.17c0.35-0.12 0.74-0.28 1.05-0.51 0.65-0.44 1.13-1.07 1.41-1.76 0.15-0.37 0.23-0.76 0.27-1.15 0.02-0.2 0.01-0.39 0-0.59l-0.04-0.3c-0.02-0.11-0.07-0.26-0.11-0.39-0.03-0.29-0.34-0.46-0.6-0.43-0.13 0.01-0.29 0.08-0.41 0.12l-0.25 0.09-1 0.35c-1.33 0.47-2.66 0.95-4.04 1.44-0.65 0.21-1.31 0.43-1.99 0.65-0.34 0.11-0.68 0.22-1.03 0.33-0.35 0.14-0.71 0.27-1.07 0.41-1.46 0.66-2.76 1.71-3.79 2.95-1.03 1.23-1.82 2.68-2.23 4.25-0.4 1.57-0.37 3.22-0.07 4.79l0.11 0.59 0.17 0.63c0.05 0.16 0.09 0.34 0.14 0.49l0.08 0.24c0.03 0.07 0.14-0.02 0.21-0.02 0.29-0.07 0.75-0.24 0.86-0.26 0.74-0.22 1.48-0.44 2.21-0.7 0.7-0.26 1.78-0.66 3.71-1.38 0.67-0.22 1.3-0.68 1.74-1.25 0.09-0.14 0.17-0.29 0.25-0.43l-0.45-0.29-0.11 0.15z" fill="#505A78"/>
		<path d="m42.54 14.29c0.16 0.14 0.42 0.15 0.71 0.1 0.63-0.14 2.29-0.74 2.37-0.77 0.41-0.14 0.34-0.86-0.28-0.65-0.06 0.02-1.54 0.42-2.31 0.78-0.37 0.2-0.64 0.41-0.49 0.54z" fill="#505A78"/>
		<path d="m39.36 19.22c0.16 0.14 0.42 0.15 0.71 0.1 0.63-0.14 2.29-0.74 2.37-0.77 0.41-0.14 0.34-0.86-0.28-0.65-0.06 0.02-1.54 0.42-2.31 0.78-0.37 0.2-0.64 0.4-0.49 0.54z" fill="#505A78"/>
			<path d="m12.64 27.94c-0.89-0.56-1.53-1.51-1.64-2.64l-1.14 0.12c-1.95 0.2-3.68-1.22-3.88-3.16l-1.14 0.12c-1.86 0.19-3.52-1.09-3.84-2.9-0.03-0.14 0.08-0.28 0.23-0.29l9.03-0.92c5.84-0.6 11.05 3.65 11.65 9.49l-7.02 0.72c-0.83 0.07-1.61-0.13-2.25-0.54" fill="#B2D8F7"/>
			<path d="m12.69 28.25c0.09 0.05 0.14 0.09 0.27 0.15 0.26 0.12 0.54 0.22 0.82 0.28 0.56 0.14 1.16 0.07 1.64 0.03 0.98-0.08 1.83-0.15 2.3-0.19 0.85-0.07 1.68-0.15 2.5-0.22 0.41-0.04 0.81-0.07 1.22-0.11l0.53-0.05 0.26-0.04c0.04-0.01 0.1 0 0.11-0.03l-0.01-0.13c-0.02-0.17-0.03-0.34-0.06-0.52l-0.06-0.41c-0.27-1.68-0.91-3.28-1.92-4.66-0.97-1.33-2.3-2.42-3.85-3.26-1.16-0.64-2.44-1.14-3.8-1.31-1.36-0.18-2.72 0.11-3.99 0.23-1.3 0.14-2.59 0.27-3.87 0.41-0.65 0.06-1.28 0.11-1.91 0.17l-0.94 0.08-0.48 0.04c-0.31 0.01-0.58 0.07-0.75 0.31-0.19 0.21-0.09 0.51-0.05 0.79 0.05 0.26 0.11 0.38 0.19 0.57 0.15 0.35 0.37 0.69 0.63 1 0.5 0.62 1.24 1.07 2.03 1.26 0.39 0.1 0.8 0.13 1.2 0.11 0.21-0.01 0.37-0.03 0.55-0.05l0.35-0.04c0.06-0.03 0.07 0.02 0.07 0.07l0.04 0.17c0.02 0.09 0.05 0.18 0.08 0.27 0.11 0.35 0.3 0.66 0.48 0.94 0.27 0.37 0.78 0.97 1.62 1.33 0.41 0.18 0.9 0.31 1.41 0.33 0.25 0.02 0.53-0.01 0.76-0.03l0.56-0.06c0.03 0 0.06-0.01 0.08 0 0.01 0.04 0.01 0.07 0.02 0.11 0.01 0.03 0.06 0.22 0.09 0.32 0.08 0.24 0.19 0.48 0.31 0.69 0.25 0.43 0.57 0.78 0.89 1.04 0.2 0.15 0.35 0.23 0.48 0.31l0.28-0.45c-0.08-0.06-0.19-0.12-0.39-0.29s-0.44-0.42-0.66-0.77c-0.11-0.18-0.21-0.38-0.29-0.6-0.04-0.11-0.07-0.23-0.1-0.36-0.04-0.21-0.08-0.45-0.1-0.68-0.18-0.03-0.55 0.04-0.81 0.06-0.21 0.02-0.44 0.04-0.67 0.07-1.16 0.12-2.26-0.49-2.8-1.2-0.57-0.75-0.63-1.28-0.71-1.81-0.02-0.06 0-0.18-0.06-0.2l-0.23 0.02-0.45 0.04-0.57 0.06c-0.36 0.03-0.67 0.05-1-0.01-0.64-0.1-1.23-0.4-1.69-0.83-0.25-0.22-0.45-0.49-0.6-0.78-0.08-0.14-0.14-0.29-0.2-0.44l-0.07-0.23c-0.02-0.06-0.02-0.07-0.02-0.11-0.03-0.06 0.02-0.13 0.08-0.13l0.36-0.03 1.06-0.11c1.41-0.15 2.81-0.31 4.26-0.46 0.68-0.06 1.38-0.11 2.09-0.17 0.35-0.03 0.71-0.05 1.08-0.08 0.35-0.01 0.71-0.02 1.07-0.03 1.48 0.04 2.97 0.34 4.32 0.99 1.34 0.64 2.52 1.6 3.48 2.73 0.94 1.14 1.71 2.46 2.09 3.91 0.05 0.18 0.1 0.36 0.13 0.55l0.06 0.51c-0.01 0.04 0.03 0.1-0.03 0.09-0.07 0 0.01-0.02-0.26 0-0.77 0.04-1.54 0.09-2.31 0.17-0.74 0.09-1.88 0.23-3.93 0.48-0.58 0.08-1.17 0.02-1.72-0.2-0.13-0.04-0.27-0.08-0.39-0.14l-0.28 0.45 0.18 0.08z" fill="#505A78"/>
		<path d="m9.07 21.75c-0.12-0.17-0.38-0.24-0.66-0.26-0.64-0.01-2.4 0.19-2.48 0.2-0.44 0.04-0.53 0.76 0.12 0.69 0.06-0.01 1.6-0.05 2.43-0.22 0.39-0.11 0.7-0.25 0.59-0.41z" fill="#505A78"/>
		<path d="m14.03 24.86c-0.12-0.17-0.38-0.24-0.66-0.26-0.64-0.01-2.4 0.19-2.48 0.2-0.44 0.04-0.53 0.76 0.12 0.69 0.06-0.01 1.6-0.05 2.43-0.22 0.4-0.11 0.71-0.24 0.59-0.41z" fill="#505A78"/>
					<path d="m28.29 8.44l-13.4 2.98c-0.13 0.03-0.22 0.16-0.19 0.3l5.25 23.61c0.03 0.13 0.16 0.22 0.3 0.19l17.27-3.84c0.51-0.11 0.83-0.61 0.72-1.12-0.05-0.23-3.82-17.39-4.15-18.89-0.02-0.07-0.06-0.12-0.12-0.16l-5.5-3.05c-0.05-0.02-0.12-0.03-0.18-0.02z" fill="#fff"/>
					<path d="m28.37 8.68l0.26 0.16 1.14 0.65c0.76 0.43 1.51 0.86 2.21 1.26 0.66 0.38 1.27 0.73 1.79 1.03 0.02 0.02 0.02 0.05 0.03 0.08 0.01 0.07 0.03 0.14 0.04 0.21 0.03 0.14 0.06 0.28 0.09 0.41 0.05 0.26 0.1 0.48 0.14 0.67 0.58 2.72 1.12 5.3 1.65 7.83 0.57 2.62 1.12 5.18 1.69 7.79 0.14 0.63 0.28 1.26 0.43 1.89 0.04 0.18-0.02 0.38-0.16 0.51-0.07 0.06-0.15 0.11-0.25 0.13l-0.48 0.11c-1.29 0.31-2.61 0.61-3.96 0.9-2.05 0.41-4.11 0.83-6.2 1.24-2.06 0.45-4.11 1.01-6.18 1.47l-0.23 0.05c-0.02 0.01-0.05 0-0.06-0.02l-0.12-0.53-0.35-1.55c-0.23-1.03-0.46-2.06-0.69-3.08-0.45-2.09-0.86-4.02-1.3-6.06-0.46-1.96-1.02-4.41-1.56-6.73-0.26-1.17-0.53-2.33-0.78-3.45-0.13-0.56-0.25-1.11-0.37-1.64l-0.04-0.2c-0.01-0.04 0.03-0.08 0.06-0.08 0.2-0.05 0.41-0.09 0.6-0.14 1.34-0.3 4.37-0.98 7.46-1.67 1.57-0.37 3.33-0.79 4.62-1.09 0.22-0.06 0.38-0.11 0.51-0.15l-0.12-0.52c-0.1 0.02-0.24 0.05-0.52 0.11-1.31 0.29-3.86 0.86-6.18 1.38-1.99 0.44-3.96 0.88-5.51 1.22-0.42 0.09-0.81 0.18-1.16 0.26-0.26 0.05-0.45 0.26-0.46 0.49-0.01 0.22 0.09 0.48 0.09 0.57 0.11 0.52 0.2 0.89 0.23 1.06 0.53 2.39 1.03 4.64 1.51 6.83 0.51 2.33 1 4.58 1.49 6.82 0.51 2.25 1.02 4.49 1.54 6.81l0.39 1.77c0.07 0.2 0.27 0.37 0.49 0.38s0.49-0.08 0.59-0.09l0.85-0.17c1.13-0.23 2.29-0.47 3.49-0.72 2.45-0.54 4.92-1.09 7.39-1.64l3.69-0.8 0.92-0.2 0.46-0.1c0.15-0.03 0.43-0.12 0.6-0.25 0.38-0.27 0.61-0.75 0.57-1.22-0.03-0.27-0.07-0.35-0.1-0.53l-0.1-0.46c-0.57-2.46-1.14-4.91-1.71-7.37-0.54-2.47-0.95-4.96-1.49-7.41-0.14-0.59-0.31-1.34-0.55-2.35-0.06-0.25-0.12-0.52-0.19-0.81-0.02-0.2-0.16-0.54-0.44-0.64-0.14-0.08-0.29-0.16-0.45-0.24-0.59-0.32-1.24-0.67-1.98-1.07-0.92-0.49-1.88-0.99-2.82-1.49l-0.21-0.1-0.07-0.02c-0.05-0.02-0.08-0.03-0.13-0.04-0.08-0.01-0.17-0.01-0.25 0.01l0.12 0.52c0.01 0.01 0 0 0.03 0.01z" fill="#505A78"/>
				<path d="m32.48 12.2c-0.26-0.13-0.82-0.1-1.44-0.02-0.22 0.04-0.51 0.1-0.82 0.15-0.15 0.03-0.31 0.06-0.47 0.09-0.11 0.02-0.08 0.02-0.09 0.02h-0.01c-0.34-1.56-0.68-3.17-0.71-3.28-0.21-0.95-0.97-1.15-0.66 0.26 0.01 0.04 0.09 0.45 0.21 1.08 0.15 0.73 0.36 1.72 0.59 2.84 0.27-0.06 0.69-0.16 1.15-0.26 0.31-0.08 0.65-0.16 0.95-0.24 0.88-0.26 1.55-0.52 1.3-0.64z" fill="#505A78"/>
					<path stroke="#8E94A8" stroke-miterlimit="10" d="m33.08 12.38" fill="none"/>
		<g fill="#505A78">
			<path d="m26.82 15.21c-0.16-0.08-0.43-0.1-0.75-0.09-0.16 0.01-0.34 0.02-0.53 0.05l-0.14 0.02h-0.04-0.08c-0.22 0.01-0.42 0.07-0.52 0.08-0.52 0.06-0.93 0.2-1.45 0.23s-1.04 0.13-1.53 0.26c-0.24 0.06-0.56 0.17-0.79 0.26-0.08 0.03-0.25 0.09-0.42 0.15-0.09 0.03-0.18 0.06-0.26 0.08-0.3 0.07-0.56 0.13-0.75 0.18-0.93 0.21-1.12 0.97 0.26 0.66 0.13-0.03 0.31-0.07 0.65-0.14 0.27-0.06 0.81-0.17 0.87-0.18 0.62-0.07 1.05-0.32 1.68-0.32s1.21-0.26 1.82-0.34c0.03 0 0.43-0.1 0.73-0.26 0.83-0.26 1.49-0.51 1.25-0.64z"/>
				<path d="m32.55 18.15c-0.25-0.13-0.8-0.11-1.41-0.02-0.48 0.03-1.02 0.18-1.24 0.21-1 0.17-1.81 0.39-2.81 0.54-0.99 0.14-2.01 0.35-2.97 0.58-0.47 0.11-1.1 0.29-1.56 0.43-0.24 0.07-0.92 0.26-1.37 0.38-0.34 0.08-0.57 0.13-0.75 0.17-0.93 0.21-1.12 0.97 0.26 0.66 0.13-0.03 0.31-0.07 0.65-0.14 0.52-0.11 1.57-0.34 1.7-0.37 1.19-0.2 2.06-0.55 3.26-0.68 1.19-0.13 2.36-0.52 3.54-0.72 0.05-0.01 0.84-0.19 1.44-0.42 0.84-0.24 1.5-0.49 1.26-0.62z"/>
				<path d="m33.43 22.12c-0.25-0.13-0.8-0.11-1.41-0.02-0.48 0.03-1.02 0.18-1.24 0.21-1 0.17-1.81 0.39-2.81 0.54-0.99 0.14-2.01 0.35-2.97 0.58-0.47 0.11-1.1 0.29-1.56 0.43-0.24 0.07-0.92 0.26-1.37 0.38-0.34 0.08-0.57 0.13-0.75 0.17-0.93 0.21-1.12 0.97 0.26 0.66 0.13-0.03 0.31-0.07 0.65-0.14 0.52-0.11 1.57-0.34 1.7-0.37 1.19-0.2 2.06-0.55 3.26-0.68 1.19-0.13 2.36-0.52 3.54-0.72 0.05-0.01 0.84-0.19 1.44-0.42 0.84-0.24 1.5-0.5 1.26-0.62z"/>
			<path d="m30.31 26.97c-0.25-0.13-0.8-0.11-1.41-0.02-0.29-0.01-0.61 0.09-0.75 0.1-0.6 0.08-1.08 0.23-1.68 0.29-0.6 0.05-1.21 0.17-1.78 0.32-0.28 0.07-0.65 0.19-0.93 0.29-0.14 0.04-0.55 0.17-0.81 0.26-0.34 0.08-0.57 0.13-0.75 0.17-0.93 0.21-1.12 0.97 0.26 0.66 0.13-0.03 0.31-0.07 0.65-0.14 0.31-0.07 0.94-0.2 1.02-0.21 0.72-0.1 1.22-0.36 1.95-0.39 0.73-0.02 1.41-0.31 2.12-0.41 0.03 0 0.5-0.12 0.85-0.29 0.85-0.25 1.5-0.51 1.26-0.63z"/>
		</g>
	<ellipse cy="40.06" cx="27.57" rx="8.2" ry="1.52" fill="#DCDEE4"/>
</svg>
