<?xml version="1.0" encoding="UTF-8" standalone="no"?>
<!-- Generator: Adobe Illustrator 18.1.1, SVG Export Plug-In . SVG Version: 6.00 Build 0)  -->
<svg id="Layer_1" xmlns="http://www.w3.org/2000/svg" xml:space="preserve" viewBox="0 0 50 50" version="1.1" y="0px" x="0px" xmlns:xlink="http://www.w3.org/1999/xlink" enable-background="new 0 0 50 50">
		<circle cy="32.97" cx="44.22" r="3.13" fill="#DCDEE4"/>
		<circle cy="31.74" cx="43" r="3.47" fill="#fff"/>
	<path d="m35.54 28.9c0.07 0.16 0.27 0.35 0.53 0.54 0.13 0.1 0.28 0.19 0.44 0.29l0.12 0.07 0.02 0.02 0.04 0.04c0.11 0.1 0.25 0.15 0.3 0.18 0.29 0.2 0.57 0.29 0.84 0.51s0.59 0.39 0.9 0.52c0.15 0.06 0.37 0.13 0.54 0.17 0.05 0.02 0.17 0.05 0.29 0.08 0.06 0.02 0.12 0.04 0.17 0.06 0.28 0.13 0.52 0.25 0.7 0.33 0.85 0.42 1.48-0.06 0.21-0.68-0.15-0.07-0.51-0.25-0.84-0.41-0.14-0.07-0.26-0.14-0.29-0.15-0.35-0.24-0.7-0.24-1.01-0.54s-0.74-0.37-1.09-0.6c-0.01-0.01-0.21-0.09-0.41-0.13l-0.08-0.01c0.01 0.01-0.06-0.02-0.12-0.04l-0.18-0.07c-0.23-0.09-0.44-0.16-0.61-0.21-0.33-0.11-0.54-0.12-0.47 0.03z" fill="#505A78"/>
	<path d="m41.34 32.78c0.01-0.09 0.02-0.18 0.04-0.23 0.12-0.67 0.53-1.18 0.7-1.37 0.38-0.42 0.86-0.67 1.34-0.82 0.5-0.14 1.04-0.14 1.54 0 0.47 0.14 0.99 0.34 1.34 0.78 0.27 0.33 0.37 0.74 0.46 1.13 0.09 0.38 0.22 0.79 0.13 1.21-0.08 0.41-0.24 0.8-0.49 1.13-0.26 0.34-0.59 0.56-0.94 0.74-0.34 0.18-0.81 0.37-1.29 0.36-0.48 0-0.94-0.14-1.3-0.33-0.24-0.12-0.76-0.5-1.08-1.06-0.17-0.28-0.31-0.62-0.38-0.88-0.05-0.2-0.06-0.35-0.08-0.48h-0.53c0.01 0.11-0.01 0.27 0.05 0.58 0.05 0.32 0.24 0.96 0.6 1.43 0.58 0.85 1.55 1.23 1.71 1.27 0.57 0.2 1.17 0.22 1.71 0.12 0.58-0.11 1.12-0.34 1.57-0.71 0.43-0.38 0.77-0.86 0.99-1.41 0.2-0.51 0.36-1.08 0.31-1.71-0.05-0.64-0.34-1.25-0.74-1.76-0.39-0.5-0.91-0.94-1.53-1.16-0.62-0.23-1.29-0.19-1.9-0.07s-1.28 0.28-1.77 0.73c-0.23 0.21-0.57 0.59-0.88 1.4-0.09 0.25-0.14 0.53-0.14 0.8-0.01 0.17 0.01 0.34 0.02 0.5h0.53c0-0.07 0.01-0.13 0.01-0.19z" fill="#505A78"/>
		<circle cy="11.15" cx="39.81" r="3.13" fill="#DCDEE4"/>
		<circle cy="10.16" cx="38.8" r="3.13" fill="#fff"/>
	<path d="m33.05 18.26c0.28-0.03 0.73-0.35 1.19-0.76 0.77-0.7 1.6-1.6 1.95-1.94l1.08-1.08 0.26-0.26 0.13-0.13c0.07-0.07 0.15-0.15 0.19-0.24 0.1-0.18 0.12-0.39 0.06-0.58-0.05-0.19-0.25-0.37-0.28-0.42-0.58-0.74-0.74-1.8-0.33-2.71 0.39-0.86 1.25-1.52 2.18-1.59 0.94-0.11 1.9 0.3 2.44 1.03 0.27 0.35 0.49 0.84 0.55 1.37s-0.05 1.08-0.25 1.48c-0.1 0.21-0.34 0.61-0.75 0.93-0.4 0.33-0.94 0.53-1.4 0.57-0.31 0.03-0.53 0.01-0.69-0.01-0.41-0.06-0.75-0.04-0.85 0.11-0.1 0.13 0.07 0.48 0.87 0.6 0.14 0.01 0.36 0.04 0.74 0.01 0.65-0.03 1.62-0.41 2.21-1.06 0.61-0.62 0.83-1.37 0.87-1.52 0.41-1.45-0.2-2.89-1.23-3.68-1.04-0.78-2.5-1.03-3.87-0.37-0.92 0.45-1.63 1.34-1.85 2.39-0.22 1.02 0.04 2.15 0.69 2.96l0.1 0.12v0.01c-0.01 0.01 0.02-0.01-0.03 0.03l-0.21 0.22-0.86 0.88c-0.08 0.08-1.3 1.36-2.19 2.42-0.58 0.68-0.98 1.25-0.72 1.22z" fill="#505A78"/>
	<circle cy="25.5" cx="5.8" r="3.11" fill="#DCDEE4"/>
	<circle cy="23.9" cx="7.4" r="3.51" fill="#fff"/>
	<path d="m18.36 25.59c-0.22-0.18-0.76-0.28-1.38-0.33-1.11-0.07-2.42-0.05-2.94-0.06-0.98-0.01-1.89-0.02-2.79-0.03-0.45 0-0.9 0-1.36-0.01-0.27 0-0.54 0-0.81-0.01-0.2 0.01-0.36 0.08-0.47 0.24-0.08 0.16-0.11 0.37-0.12 0.54-0.05 0.31-0.17 0.63-0.36 0.93-0.53 0.87-1.57 1.4-2.58 1.28-1.01-0.08-1.9-0.79-2.24-1.7-0.17-0.44-0.24-1.02-0.12-1.58 0.12-0.55 0.44-1.06 0.8-1.39 0.18-0.17 0.58-0.48 1.11-0.63s1.17-0.12 1.62 0.05c0.29 0.1 0.48 0.21 0.61 0.3 0.35 0.23 0.66 0.35 0.82 0.26 0.15-0.07 0.14-0.46-0.53-0.91-0.13-0.07-0.3-0.19-0.67-0.32-0.65-0.26-1.76-0.31-2.61 0.09-0.85 0.39-1.34 1.06-1.43 1.2-0.97 1.31-0.79 3.02 0.05 4.11 0.83 1.12 2.36 1.73 3.92 1.3 1.27-0.34 2.31-1.5 2.49-2.85 0.01-0.08 0-0.02 0-0.04h0.07 0.31l1.25-0.01c0.83 0 1.66 0 2.49 0.01 0.12 0 2.02-0.01 3.49-0.09 0.89-0.07 1.59-0.17 1.38-0.35z" fill="#505A78"/>
	<ellipse cy="41.97" cx="26.14" rx="6.97" ry="1" fill="#DCDEE4"/>
				<circle cy="25.53" cx="25.66" r="11.04" fill="#B2D8F7"/>
				<circle cy="21.93" cx="25.66" r="3.56" fill="#fff"/>
				<path d="m23.13 24.85s0.16 0.15 0.43 0.35 0.68 0.41 1.14 0.54c0.92 0.29 1.95 0.08 2.17-0.02 0.3-0.08 0.83-0.32 1.26-0.69 0.45-0.36 0.77-0.83 0.91-1.08 0.49-0.99 0.56-1.89 0.44-2.78-0.15-0.88-0.55-1.84-1.59-2.63-0.49-0.26-1.1-0.5-1.82-0.57-0.72-0.06-1.56 0.07-2.3 0.53-1.34 0.6-2.13 2.06-2.1 3.43h0.8c-0.02-1.08 0.59-2.22 1.62-2.73 0.67-0.42 1.56-0.58 2.4-0.36 0.83 0.21 1.59 0.79 2 1.57 0.42 0.77 0.48 1.72 0.2 2.51-0.27 0.8-0.86 1.44-1.54 1.79-0.83 0.38-1.4 0.35-2.39 0.15-0.42-0.09-0.86-0.31-1.24-0.62 0 0-0.34-0.28-0.62-0.75-0.29-0.46-0.44-1.12-0.44-1.56h-0.8c0 1.16 0.73 2.25 1.47 2.92z" fill="#505A78"/>
			<path d="m14.39 25.73v0.3c0.01 0.37 0.02 0.74 0.09 1.11 0.08 0.73 0.26 1.45 0.47 2.09 0.2 0.65 0.48 1.22 0.71 1.71 0.28 0.46 0.49 0.87 0.69 1.13 1.35 1.94 3.2 3.39 5.27 4.16 1.07 0.42 2.19 0.65 3.32 0.72 1.13 0.09 2.27-0.03 3.38-0.28 2.15-0.51 4.16-1.73 5.75-3.46 1.21-1.3 2.22-2.86 2.7-4.63 0.48-1.76 0.44-3.63 0.08-5.4-0.38-1.78-1.2-3.44-2.32-4.83-1.15-1.41-2.51-2.5-4.13-3.25-1.56-0.76-3.75-1.11-5.77-0.92-2.03 0.19-3.98 0.97-5.38 1.94-0.96 0.62-3.03 2.43-4.06 4.96-0.54 1.27-0.81 2.8-0.82 3.92 0 0.23 0.01 0.4 0.01 0.54h0.53c0.01-0.1 0.01-0.24 0.03-0.51 0.02-1.07 0.4-3.18 1.4-4.83 0.82-1.42 1.97-2.6 3.01-3.33 1.04-0.75 1.92-1.1 2.17-1.22 1.82-0.71 3.71-0.97 5.49-0.72 1.9 0.24 3.64 0.99 5.1 2.11 1.48 1.09 2.65 2.59 3.42 4.33 0.67 1.66 0.93 3.53 0.67 5.45-0.13 0.99-0.41 1.95-0.77 2.88-0.4 0.92-0.92 1.79-1.55 2.57-0.65 0.76-1.39 1.44-2.22 2-0.84 0.54-1.73 1.01-2.68 1.31-1.88 0.61-3.97 0.81-5.91 0.3-1.97-0.48-3.68-1.66-5.03-3.08-0.63-0.69-1.75-1.78-2.57-4.33-0.1-0.4-0.24-0.8-0.29-1.22l-0.11-0.63-0.07-0.65c-0.03-0.15-0.06-0.29-0.08-0.44h-0.53v0.2z" fill="#505A78"/>
		<path d="m25.66 36.57c3.06 0 5.83-1.25 7.83-3.27 0.07-0.07 0.09-0.17 0.05-0.26-1.29-3.08-4.33-5.25-7.88-5.25s-6.59 2.17-7.88 5.25c-0.04 0.09-0.02 0.19 0.05 0.26 2 2.02 4.77 3.27 7.83 3.27z" fill="#fff"/>
		<path d="m20.8 35.09s-0.51-0.26-1.13-0.7c-0.31-0.22-0.64-0.48-0.95-0.77-0.16-0.14-0.31-0.28-0.45-0.43-0.09-0.08-0.08-0.09-0.06-0.14 0.05-0.11 0.1-0.22 0.15-0.32 0.06-0.12 0.13-0.23 0.19-0.34 0.11-0.21 0.24-0.39 0.34-0.55 0.2-0.31 0.37-0.5 0.44-0.6 0.29-0.34 0.84-0.96 1.51-1.45 0.66-0.51 1.4-0.87 1.79-1.03 1.48-0.66 2.85-0.75 4.17-0.55 1.32 0.23 2.69 0.77 4.05 1.99 0.45 0.32 0.9 0.76 1.32 1.31 0.21 0.28 0.42 0.58 0.61 0.92 0.1 0.17 0.19 0.34 0.27 0.53l0.06 0.12c0.01 0.02 0 0.04-0.02 0.05l-0.28 0.28c-0.12 0.11-0.25 0.22-0.38 0.34-0.27 0.23-0.56 0.46-0.87 0.68-1.84 1.1-3.88 1.68-5.89 1.7v0.8c2.13-0.01 4.29-0.62 6.22-1.8 0.31-0.2 0.61-0.43 0.91-0.68 0.15-0.12 0.3-0.25 0.45-0.39 0.08-0.07 0.15-0.14 0.23-0.21l0.28-0.27c0.22-0.2 0.24-0.54 0.09-0.79l-0.25-0.52c-0.17-0.32-0.36-0.64-0.57-0.94-0.42-0.6-0.92-1.17-1.48-1.66-1.12-1-2.52-1.69-4-2.02-1.47-0.32-3.02-0.26-4.42 0.15s-2.66 1.16-3.64 2.09c-0.49 0.45-0.84 0.89-1.19 1.33-0.16 0.23-0.33 0.46-0.48 0.71-0.07 0.13-0.16 0.25-0.23 0.39-0.08 0.17-0.16 0.34-0.25 0.52-0.06 0.15-0.08 0.32-0.03 0.51 0.03 0.17 0.24 0.36 0.35 0.46 0.17 0.17 0.38 0.35 0.6 0.53 0.7 0.54 1.53 1.06 2.41 1.47 0 0 0.77 0.39 1.81 0.67 1.03 0.31 2.32 0.44 3.19 0.43v-0.8c-1.64 0.04-3.5-0.24-4.87-1.02z" fill="#505A78"/>
</svg>
